<svg version="1.1" viewBox="0.0 0.0 960.0 720.0" fill="none" stroke="none" stroke-linecap="square" stroke-miterlimit="10" xmlns:xlink="http://www.w3.org/1999/xlink" xmlns="http://www.w3.org/2000/svg"><clipPath id="p.0"><path d="m0 0l960.0 0l0 720.0l-960.0 0l0 -720.0z" clip-rule="nonzero"/></clipPath><g clip-path="url(#p.0)"><path fill="#000000" fill-opacity="0.0" d="m0 0l960.0 0l0 720.0l-960.0 0z" fill-rule="evenodd"/><path fill="#cfe2f3" d="m382.9134 288.18896l192.12598 0l0 46.70868l-192.12598 0z" fill-rule="evenodd"/><path stroke="#000000" stroke-width="1.0" stroke-linejoin="round" stroke-linecap="butt" d="m382.9134 288.18896l192.12598 0l0 46.70868l-192.12598 0z" fill-rule="evenodd"/><path fill="#cfe2f3" d="m383.937 335.76642l192.12598 0l0 288.18896l-192.12598 0z" fill-rule="evenodd"/><path stroke="#000000" stroke-width="1.0" stroke-linejoin="round" stroke-linecap="butt" d="m383.937 335.76642l192.12598 0l0 288.18896l-192.12598 0z" fill-rule="evenodd"/><path fill="#cfe2f3" d="m383.937 0l192.12598 0l0 288.18896l-192.12598 0z" fill-rule="evenodd"/><path stroke="#000000" stroke-width="1.0" stroke-linejoin="round" stroke-linecap="butt" d="m383.937 0l192.12598 0l0 288.18896l-192.12598 0z" fill-rule="evenodd"/><path fill="#cfe2f3" d="m456.2047 311.5433l0 0c0 -12.898224 10.653534 -23.35434 23.795288 -23.35434l0 0c6.310913 0 12.363312 2.4605408 16.825806 6.840332c4.4624634 4.3797913 6.9694824 10.320068 6.9694824 16.514008l0 0c0 12.898254 -10.653534 23.35434 -23.795288 23.35434l0 0c-13.141754 0 -23.795288 -10.456085 -23.795288 -23.35434z" fill-rule="evenodd"/><path stroke="#000000" stroke-width="1.0" stroke-linejoin="round" stroke-linecap="butt" d="m456.2047 311.5433l0 0c0 -12.898224 10.653534 -23.35434 23.795288 -23.35434l0 0c6.310913 0 12.363312 2.4605408 16.825806 6.840332c4.4624634 4.3797913 6.9694824 10.320068 6.9694824 16.514008l0 0c0 12.898254 -10.653534 23.35434 -23.795288 23.35434l0 0c-13.141754 0 -23.795288 -10.456085 -23.795288 -23.35434z" fill-rule="evenodd"/><path fill="#cfe2f3" d="m576.0735 263.0866l320.7874 37.65323l0 22.016388l-320.7874 37.65323z" fill-rule="evenodd"/><path stroke="#000000" stroke-width="1.0" stroke-linejoin="round" stroke-linecap="butt" d="m576.0735 263.0866l320.7874 37.65323l0 22.016388l-320.7874 37.65323z" fill-rule="evenodd"/><path fill="#cfe2f3" d="m383.9265 360.40945l-320.7874 -37.65323l0 -22.016388l320.7874 -37.65323z" fill-rule="evenodd"/><path stroke="#000000" stroke-width="1.0" stroke-linejoin="round" stroke-linecap="butt" d="m383.9265 360.40945l-320.7874 -37.65323l0 -22.016388l320.7874 -37.65323z" fill-rule="evenodd"/></g></svg>